<?xml version="1.0" encoding="UTF-8"?>
<svg id="Camada_1" xmlns="http://www.w3.org/2000/svg" version="1.1" viewBox="0 0 512 62.302">
  <!-- Generator: Adobe Illustrator 30.2.1, SVG Export Plug-In . SVG Version: 2.1.1 Build 1)  -->
  <path d="M361.767,4.17C357.144.633,351.522,0,326.226,0s-30.916.635-35.541,4.17c-4.625,3.537-5.983,9.7-5.983,26.566,0,17.771,1.269,23.754,5.983,27.382,4.623,3.551,10.245,4.185,35.722,4.185s30.736-.635,35.358-4.185c4.625-3.537,5.985-9.611,5.985-27.018s-1.36-23.39-5.985-26.927l.002-.002h0ZM349.346,32.821c0,7.343-.635,9.972-2.721,11.605-2.448,1.813-5.439,2.176-20.219,2.176s-18.132-.272-20.58-2.176c-2.176-1.722-2.721-4.17-2.721-11.696s.606-11.042,1.45-13.237c3.219-8.382,39.497-2.957,50.031-3.931l-5.95,6.191c.509,2.284.706,5.68.706,11.069h.004ZM223.413,41.344c0,3.626.363,4.806,1.813,5.711,1.724,1.088,3.717,1.269,16.682,1.269,13.176,0,19.764-1.783,19.764-5.35,0-3.626-1.36-4.534-7.254-4.625l-14.506-.544-9.792-.453-4.897-.181c-14.959-.453-19.131-4.261-19.131-17.588,0-11.515,3.265-16.682,11.605-18.495C221.236.363,229.578,0,244.084,0,261.672,0,268.018.816,272.28,3.717c3.626,2.448,5.078,6.255,5.078,13.418,0,.361,0,1.632-.091,2.812h-17.771c-.181-3.356-.453-4.17-1.813-4.986-1.541-.908-3.809-1.088-16.863-1.088-15.594,0-16.863.361-16.863,4.806,0,2.266.816,3.445,2.721,3.898,1.632.453,6.619.725,19.403,1.088,19.947.633,23.845,1.088,27.743,3.537,4.17,2.721,5.711,6.799,5.711,15.231,0,10.517-2.538,15.686-8.795,18.043-3.626,1.375-11.243,1.828-29.284,1.828s-26.111-.816-30.372-3.551c-4.17-2.629-5.53-6.166-5.53-14.506v-2.901h17.86v-.002ZM173.422,40.048l8.205-5.418h-10.915c-3.275-6.527-6.577-13.061-9.945-19.669h-3.626c-7.914,15.519-15.611,30.854-23.392,46.421h-21.05L144.715.908h28.651l31.641,60.472h-20.944l-2.583-5.123c-2.696-5.445-5.373-10.832-8.06-16.209h.002,0ZM109.992.908v60.472h-19.312V.908h19.312ZM20.234.908l22.03,45.242h3.537L67.56.908h20.128l-29.556,60.472h-28.196L0,.908h20.234ZM393.41,16.286v10.278h43.248l-8.822,13.873h-34.426v20.944h-18.404V.908h136.994v15.414h-26.929v45.061h-19.312V16.319l-72.351-.033h.002,0Z"/>
</svg>