<?xml version="1.0" encoding="UTF-8"?>
<svg id="Camada_2" xmlns="http://www.w3.org/2000/svg" version="1.1" viewBox="0 0 512 512">
  <!-- Generator: Adobe Illustrator 30.2.1, SVG Export Plug-In . SVG Version: 2.1.1 Build 1)  -->
  <g id="Camada_1-2">
    <g>
      <polygon points="402.076 394.726 324.786 243.771 126.363 379.574 315.133 451.469 402.076 394.726"/>
      <polygon points="105.264 351.242 193.676 116.531 59.788 209.098 105.264 351.242"/>
      <polygon points="320.452 67.53 221.157 101.297 125.466 355.443 318.405 223.263 320.452 67.53"/>
      <polygon points="339.179 197.404 485.991 0 485.91 0 340.979 59.789 339.179 197.404"/>
      <polygon points="340.488 229.77 419.253 383.526 421.297 382.208 482.228 252.252 512 0 511.428 0 340.488 229.77"/>
      <polygon points="93.485 381.22 44.33 227.628 0 332.301 26.828 507.635 93.485 381.22"/>
      <polygon points="109.271 394.975 47.602 512 289.78 468.022 293.949 465.306 109.271 394.975"/>
    </g>
  </g>
</svg>