<?xml version="1.0" encoding="UTF-8"?>
<svg id="Camada_2" xmlns="http://www.w3.org/2000/svg" version="1.1" viewBox="0 0 445.477 512">
  <!-- Generator: Adobe Illustrator 30.2.1, SVG Export Plug-In . SVG Version: 2.1.1 Build 1)  -->
  <path d="M325.975,78.473v412.077c-.017,1.792,1.28,3.345,3.055,3.635l112.231,17.767c1.98.324,3.84-1.024,4.164-3.004.034-.205.051-.41.051-.631V3.652c0-1.997-1.604-3.635-3.601-3.652-.717,0-1.417.205-2.014.597l-110.559,71.971c-2.014,1.297-3.243,3.516-3.294,5.905h-.034Z"/>
  <path d="M0,393.935v44.971c-.017,1.792,1.28,3.345,3.055,3.635l112.231,17.767c1.98.307,3.823-1.058,4.13-3.038.034-.188.051-.393.034-.58v-137.473c0-1.997-1.638-3.618-3.635-3.618-.7,0-1.365.205-1.946.58L3.311,387.996c-2.014,1.314-3.26,3.533-3.294,5.956l-.017-.017Z"/>
  <path d="M162.971,236.102v228.507c-.017,1.809,1.297,3.362,3.089,3.635l112.18,17.767c1.98.324,3.84-1.024,4.164-3.004.034-.205.051-.41.051-.631V161.281c0-1.997-1.638-3.618-3.635-3.618-.7,0-1.365.205-1.946.58l-110.593,71.817c-2.048,1.331-3.294,3.618-3.294,6.059l-.017-.017Z"/>
</svg>