<?xml version="1.0" encoding="UTF-8"?>
<svg id="Camada_2" xmlns="http://www.w3.org/2000/svg" version="1.1" viewBox="0 0 512 499.308">
  <!-- Generator: Adobe Illustrator 30.2.1, SVG Export Plug-In . SVG Version: 2.1.1 Build 1)  -->
  <g id="Camada_1-2">
    <g>
      <polygon points="243.06 217.606 280.221 299.12 309.131 274.37 309.131 126.15 202.796 0 202.796 247.996 243.06 217.606"/>
      <polygon points="462.077 143.354 413.704 86.308 358.138 151.253 358.138 232.343 462.077 143.354"/>
      <polygon points="153.719 285.017 153.719 140.815 47.457 267.317 47.457 365.191 153.719 285.017"/>
      <polygon points="358.138 273.593 358.138 473.428 309.061 473.428 309.061 315.62 269.009 349.96 230.72 266.188 202.796 287.274 202.796 473.428 153.719 473.428 153.719 324.293 47.457 404.467 47.457 473.428 0 473.428 0 499.308 512 499.308 512 473.428 464.473 473.428 464.473 182.559 358.138 273.593"/>
    </g>
  </g>
</svg>