<?xml version="1.0" encoding="UTF-8"?>
<svg id="Camada_2" xmlns="http://www.w3.org/2000/svg" version="1.1" viewBox="0 0 512 512">
  <!-- Generator: Adobe Illustrator 30.2.1, SVG Export Plug-In . SVG Version: 2.1.1 Build 1)  -->
  <path d="M473.932,350.653c22.408-10.439,38.067-33.392,38.067-60.088s-15.585-49.723-38.075-60.138c17.041-7.926,30.622-23.233,35.846-43.087,9.308-35.377-11.402-71.452-46.077-80.996L82.047,2.306C47.374-7.238,11.537,13.711,2.229,49.088c-9.308,35.377,11.402,71.452,46.077,80.996h-.002l346.222,94.382h-212.744c-35.837,0-65.16,29.558-65.16,66.099s29.089,66.099,65.16,66.099h212.75l-92.573,25.252c-34.675,9.544-55.386,45.619-46.077,80.996,9.308,35.377,44.912,56.325,79.821,46.782l127.992-34.913c34.675-9.544,55.385-45.619,46.077-80.996-5.233-19.89-18.779-35.218-35.84-43.131Z" fill-rule="evenodd"/>
</svg>