<?xml version="1.0" encoding="UTF-8"?>
<svg id="Camada_2" xmlns="http://www.w3.org/2000/svg" version="1.1" viewBox="0 0 332.25 512">
  <!-- Generator: Adobe Illustrator 30.2.1, SVG Export Plug-In . SVG Version: 2.1.1 Build 1)  -->
  <g id="Camada_1-2">
    <g>
      <path d="M132.291,263.984l-17.82,100.802h61.306c35.507,0,45.281-12.5,49.469-36.572l5.187-29.122c4.188-24.069-2.993-35.108-36.836-35.108h-61.306Z"/>
      <path d="M209.62,197.291c19.942-.553,39.851,1.935,59.046,7.38-7.38-12.5-14.761-25.134-22.008-37.701-6.515-11.305-12.943-22.651-19.282-34.045-10.573-19.082-20.746-38.366-30.187-57.981-9.951-18.98-18.079-38.861-24.269-59.379-1.132-4.388-2.127-8.845-2.859-13.299-.236-1.375-1.469-2.348-2.859-2.26-1.405-.092-2.66.878-2.926,2.26-6.981,40.693-36.702,99.739-94.22,195.022h139.568l-.003.003Z"/>
      <path d="M60.612,212.784c-8.445,13.832-17.354,28.326-26.596,43.686-45.414,73.141-40.96,134.847-12.367,179.529l38.965-223.215h-.003Z"/>
      <path d="M313.548,283.665c0,2.726-.732,5.519-1.265,8.379l-7.514,43.686c-11.105,62.702-53.194,94.287-140.3,94.287h-61.506l-11.435,65.095c23.432,10.867,48.908,16.625,74.736,16.888h.466c99.274,0,210.449-89.366,146.815-228.269"/>
    </g>
  </g>
</svg>