<?xml version="1.0" encoding="UTF-8"?>
<svg id="Camada_2" xmlns="http://www.w3.org/2000/svg" version="1.1" viewBox="0 0 512 465.962">
  <!-- Generator: Adobe Illustrator 30.2.1, SVG Export Plug-In . SVG Version: 2.1.1 Build 1)  -->
  <g id="Camada_1-2">
    <path d="M445.519,50.143c0-15.496,2.949-31.738,8.87-48.733.238-.475.32-.937.537-1.41h-150.461C263.257,99.492,100.056,376.296,0,465.962h27.967c30.803,0,59.905-14.137,78.751-38.501,66.83-86.411,179.229-253.484,215.806-312.446,8.111,26.225,24.751,58.732,49.876,97.503s37.683,69.808,37.659,93.072c0,24.014-9.893,46.462-29.639,67.335-19.772,20.87-40.918,31.308-63.441,31.308s-38.42-15.144-47.654-45.429c-9.236-30.288-19.759-45.442-31.583-45.442-8.859,0-23.546,12.387-44.043,37.125-20.496,24.751-30.75,41.548-30.75,50.421,0,15.154,10.344,29.372,31.033,42.664,20.678,13.293,43.581,19.941,68.697,19.941,57.985,0,114.041-26.212,168.16-78.676,54.106-52.437,81.16-106.931,81.16-163.444,0-28.439-11.071-59.293-33.188-92.551-22.133-33.26-33.236-59.496-33.292-78.7h0Z"/>
  </g>
</svg>